<?xml version="1.0" standalone="no"?>
<!DOCTYPE svg PUBLIC "-//W3C//DTD SVG 20010904//EN"
 "http://www.w3.org/TR/2001/REC-SVG-20010904/DTD/svg10.dtd">
<svg version="1.0" xmlns="http://www.w3.org/2000/svg"
 width="1024.000000pt" height="1024.000000pt" viewBox="0 0 1024.000000 1024.000000"
 preserveAspectRatio="xMidYMid meet">

<g transform="translate(0.000000,1024.000000) scale(0.100000,-0.100000)"
fill="#000000" stroke="none">
<path d="M4785 8933 c-704 -61 -1277 -258 -1860 -638 -466 -304 -926 -829
-1202 -1370 -279 -548 -406 -1069 -420 -1715 -15 -677 93 -1181 373 -1756 218
-445 491 -826 820 -1144 126 -121 197 -179 440 -356 17 -12 94 -61 171 -107
483 -293 1047 -478 1642 -537 156 -15 584 -12 762 5 629 63 1241 278 1734 609
414 279 736 605 1023 1034 422 631 622 1229 664 1979 36 652 -89 1277 -382
1908 -143 307 -428 713 -703 1001 -130 136 -347 320 -497 421 -395 265 -742
428 -1145 539 -359 98 -666 135 -1102 132 -153 -1 -296 -3 -318 -5z m670
-1253 c344 -10 659 -34 841 -65 277 -48 430 -129 625 -332 107 -112 299 -326
378 -423 30 -36 57 -66 62 -68 4 -2 29 17 56 42 102 97 252 150 423 151 114 0
163 -12 209 -51 46 -38 57 -76 37 -128 -27 -71 -55 -90 -128 -88 -34 1 -77 7
-95 13 -64 21 -183 -22 -268 -97 -21 -18 -26 -27 -17 -31 36 -14 178 -132 246
-204 62 -66 88 -103 132 -193 97 -200 130 -385 121 -689 -8 -266 -46 -435
-142 -627 -56 -112 -118 -192 -223 -290 -76 -71 -106 -91 -237 -155 -180 -90
-232 -102 -600 -139 -443 -45 -509 -47 -1705 -47 -935 -1 -1193 2 -1405 15
-619 38 -874 92 -1117 236 -173 103 -344 337 -422 575 -137 424 -83 986 122
1257 35 46 165 170 233 221 20 15 53 33 73 40 l38 13 -57 47 c-91 75 -217 100
-287 57 -22 -13 -51 -20 -85 -20 -47 0 -56 4 -88 35 -28 29 -35 43 -35 75 0
114 100 180 272 180 123 0 298 -66 400 -151 26 -21 51 -39 56 -39 5 0 22 19
37 43 59 88 309 371 425 480 178 168 332 244 585 291 342 63 853 85 1540 66z
m-3194 -3150 c29 -41 91 -112 137 -158 104 -102 202 -153 410 -211 169 -48
270 -66 447 -81 72 -7 133 -15 136 -18 12 -12 -21 -115 -52 -163 -17 -26 -46
-60 -66 -75 -66 -50 -104 -56 -408 -59 -303 -3 -382 3 -472 36 -75 29 -172
123 -211 206 l-27 58 -3 330 -3 330 30 -60 c16 -33 52 -94 82 -135z m5813
-170 c1 -319 -2 -335 -72 -435 -41 -60 -86 -94 -167 -126 -58 -23 -69 -24
-414 -27 -390 -4 -406 -2 -475 59 -33 28 -89 137 -101 195 l-6 31 128 17 c255
34 497 90 640 149 113 46 206 118 309 239 85 101 107 135 125 197 l13 44 9
-29 c5 -16 10 -157 11 -314z m-4237 -766 c66 -13 77 -13 125 3 50 17 123 18
1133 18 1048 0 1081 -1 1119 -19 63 -32 116 -88 116 -124 0 -42 -42 -89 -93
-104 -44 -13 -55 -13 -1889 -7 -793 2 -839 3 -868 20 -36 22 -70 75 -70 108 0
29 51 79 112 110 39 20 52 22 143 16 55 -4 132 -13 172 -21z m3065 -13 c40
-16 104 -35 142 -42 61 -12 69 -11 77 4 15 25 74 37 188 37 99 0 107 -1 152
-30 77 -50 101 -53 152 -19 97 64 234 51 296 -27 30 -38 26 -71 -13 -110 -29
-29 -41 -34 -83 -35 -26 -1 -52 0 -58 1 -5 1 -263 2 -573 1 -619 -1 -599 -3
-636 59 -23 41 -20 72 14 118 17 23 31 42 33 42 1 0 20 7 42 15 22 8 75 14
117 15 62 0 90 -6 150 -29z m-3820 -26 c32 -23 68 -90 68 -127 0 -14 -8 -32
-17 -41 -23 -20 -158 -32 -249 -22 -59 6 -73 12 -101 40 -39 39 -42 69 -10
116 35 52 59 60 177 57 86 -3 110 -7 132 -23z m-562 2 c13 -7 34 -30 47 -52
17 -31 31 -42 67 -52 45 -13 77 -47 59 -63 -13 -12 -156 -30 -239 -30 -88 0
-132 17 -157 59 -22 38 -21 53 5 86 43 55 157 83 218 52z"/>
<path d="M4745 7444 c-443 -21 -861 -70 -989 -114 -144 -49 -203 -99 -416
-351 -36 -42 -85 -100 -110 -130 -25 -29 -53 -66 -63 -83 l-19 -29 123 6 c67
4 177 7 244 7 l123 0 12 65 c23 122 101 222 216 277 120 56 429 59 548 5 103
-47 197 -175 212 -288 l7 -49 416 0 c229 0 425 -3 437 -6 17 -5 24 2 39 43 65
175 206 297 395 344 79 20 241 17 315 -5 171 -51 307 -169 385 -336 l23 -49
216 -3 c119 -2 217 -3 218 -3 4 1 -117 139 -267 306 -199 221 -263 264 -451
303 -101 21 -387 53 -632 71 -191 14 -830 27 -982 19z"/>
<path d="M5959 6906 c-60 -16 -130 -58 -164 -98 l-28 -33 59 -6 c78 -9 446 -9
507 -1 l49 7 -22 28 c-32 41 -99 83 -160 101 -63 19 -176 20 -241 2z"/>
<path d="M4010 6903 c-31 -3 -54 -13 -74 -31 -26 -25 -56 -78 -56 -101 0 -7
94 -11 255 -13 140 -2 255 0 255 4 0 21 -46 120 -59 127 -19 10 -256 20 -321
14z"/>
<path d="M3585 6508 c-253 -4 -495 -12 -537 -17 -84 -11 -191 -54 -248 -100
-19 -15 -46 -33 -59 -40 -13 -7 -19 -17 -15 -21 5 -5 56 -23 113 -41 198 -60
573 -228 609 -272 6 -7 15 -48 21 -92 6 -44 22 -125 36 -180 14 -55 29 -158
35 -229 15 -189 17 -175 -27 -165 -21 4 -105 22 -187 39 -177 38 -270 67 -391
126 -247 119 -364 274 -410 539 l-7 39 -19 -24 c-28 -37 -75 -175 -88 -257
-23 -149 -7 -476 31 -633 28 -115 126 -283 220 -379 129 -130 262 -191 479
-221 162 -22 637 -60 873 -71 389 -17 2264 -6 2516 14 227 19 541 53 620 68
81 15 205 56 270 89 100 51 215 180 288 325 145 286 172 771 57 1023 -13 28
-28 52 -33 52 -5 0 -13 -21 -17 -47 -16 -115 -120 -301 -213 -384 -55 -49
-167 -124 -217 -145 -98 -41 -296 -95 -415 -113 -74 -12 -148 -24 -164 -28
-28 -6 -28 -5 -22 33 4 22 10 98 15 169 7 102 18 163 50 283 23 84 47 162 54
173 17 27 109 84 251 153 127 62 271 113 404 142 45 11 82 21 82 24 0 9 -199
123 -246 142 -24 10 -72 20 -106 23 -92 9 -3063 11 -3603 3z m2015 -297 c216
-23 453 -70 560 -112 160 -61 246 -131 310 -250 63 -119 51 -284 -34 -465 -53
-112 -62 -124 -169 -232 -88 -89 -176 -154 -302 -224 -103 -56 -162 -80 -310
-122 -208 -59 -306 -70 -575 -62 -323 10 -450 26 -608 77 -218 71 -356 153
-506 302 -138 138 -210 279 -234 463 -23 171 19 287 146 406 136 128 417 199
947 242 123 10 599 -4 775 -23z m-2480 -1088 c362 -86 392 -94 446 -114 106
-40 135 -120 69 -186 l-35 -35 -68 7 c-59 6 -452 83 -589 116 -72 17 -153 59
-177 91 -39 54 -15 125 54 160 42 21 56 20 300 -39z m4311 26 c38 -27 54 -70
40 -112 -31 -91 -149 -142 -446 -191 -82 -14 -190 -32 -239 -40 -142 -25 -168
-23 -216 22 -45 43 -53 89 -24 130 32 46 47 51 524 158 311 69 309 69 361 33z"/>
<path d="M4715 5973 c-289 -34 -385 -49 -463 -69 -110 -28 -196 -65 -235 -102
-25 -24 -55 -98 -43 -109 2 -3 155 1 338 8 353 13 1327 7 1718 -11 176 -8 206
-11 217 -26 12 -16 13 -15 13 12 0 101 -66 171 -199 209 -25 7 -95 23 -156 34
-103 19 -157 25 -413 51 -94 9 -706 12 -777 3z"/>
<path d="M6252 5595 c0 -16 2 -22 5 -12 2 9 2 23 0 30 -3 6 -5 -1 -5 -18z"/>
<path d="M6225 5519 c-5 -13 -164 -14 -1116 -13 l-1111 2 7 -27 c8 -33 118
-198 153 -230 l26 -24 14 41 c18 54 36 59 242 72 213 13 1046 13 1260 0 177
-11 343 -35 348 -50 2 -6 9 -10 15 -10 46 2 199 221 173 247 -3 3 -8 -1 -11
-8z"/>
<path d="M4585 5150 c-165 -9 -205 -16 -205 -36 0 -18 95 -63 195 -93 99 -29
209 -41 455 -48 318 -9 536 17 705 84 161 64 152 75 -68 85 -253 12 -927 17
-1082 8z"/>
<path d="M7270 6000 c-201 -77 -255 -103 -269 -128 -12 -22 -44 -202 -37 -209
7 -7 107 23 213 63 140 53 212 119 252 230 13 34 21 72 19 86 l-3 24 -175 -66z"/>
<path d="M2764 6043 c2 -10 11 -43 20 -74 23 -83 84 -157 179 -220 59 -38 122
-62 254 -97 l73 -19 -6 41 c-16 106 -35 190 -46 203 -6 8 -32 25 -57 38 -45
22 -394 145 -413 145 -5 0 -7 -8 -4 -17z"/>
</g>
</svg>
